<?xml version="1.0" encoding="UTF-8" standalone="no"?>
<svg
   xmlns:dc="http://purl.org/dc/elements/1.1/"
   xmlns:cc="http://creativecommons.org/ns#"
   xmlns:rdf="http://www.w3.org/1999/02/22-rdf-syntax-ns#"
   xmlns:svg="http://www.w3.org/2000/svg"
   xmlns="http://www.w3.org/2000/svg"
   xmlns:sodipodi="http://sodipodi.sourceforge.net/DTD/sodipodi-0.dtd"
   xmlns:inkscape="http://www.inkscape.org/namespaces/inkscape"
   sodipodi:docname="SLogowhite.svg"
   inkscape:version="1.0 (4035a4fb49, 2020-05-01)"
   id="svg8"
   version="1.1"
   viewBox="0 0 73 63"
   height="63mm"
   width="73mm">
  <defs
     id="defs2">
    <rect
       x="159.82718"
       y="124.5476"
       width="72.697311"
       height="45.703091"
       id="rect928" />
    <inkscape:path-effect
       fuse_tolerance="0"
       hide_knot="false"
       vertical_pattern="false"
       prop_units="false"
       tang_offset="0"
       normal_offset="0"
       spacing="0"
       scale_y_rel="false"
       prop_scale="0.19"
       copytype="single_stretched"
       pattern="m 4.4668141,-31.749943 c 0,-0.891511 0.7235456,-1.615057 1.6150572,-1.615057 0.8915115,0 1.6150571,0.723546 1.6150571,1.615057 0,0.891512 -0.7235456,1.615057 -1.6150571,1.615057 -0.8915116,0 -1.6150572,-0.723545 -1.6150572,-1.615057 z"
       lpeversion="1"
       is_visible="true"
       id="path-effect1353"
       effect="skeletal" />
    <inkscape:path-effect
       fuse_tolerance="0"
       hide_knot="false"
       vertical_pattern="false"
       prop_units="false"
       tang_offset="0"
       normal_offset="0"
       spacing="0"
       scale_y_rel="false"
       prop_scale="1"
       copytype="single_stretched"
       pattern="M 0,5 C 0,2.24 2.24,0 5,0 7.76,0 10,2.24 10,5 10,7.76 7.76,10 5,10 2.24,10 0,7.76 0,5 Z"
       lpeversion="1"
       is_visible="true"
       id="path-effect1301"
       effect="skeletal" />
    <inkscape:path-effect
       fuse_tolerance="0"
       hide_knot="false"
       vertical_pattern="false"
       prop_units="false"
       tang_offset="0"
       normal_offset="0"
       spacing="0"
       scale_y_rel="false"
       prop_scale="0.15"
       copytype="single_stretched"
       pattern="m 4.4668141,-31.749943 c 0,-0.891511 0.7235456,-1.615057 1.6150572,-1.615057 0.8915115,0 1.6150571,0.723546 1.6150571,1.615057 0,0.891512 -0.7235456,1.615057 -1.6150571,1.615057 -0.8915116,0 -1.6150572,-0.723545 -1.6150572,-1.615057 z"
       lpeversion="1"
       is_visible="true"
       id="path-effect1292"
       effect="skeletal" />
    <inkscape:path-effect
       fuse_tolerance="0"
       hide_knot="false"
       vertical_pattern="false"
       prop_units="false"
       tang_offset="0"
       normal_offset="0"
       spacing="0"
       scale_y_rel="false"
       prop_scale="0.15"
       copytype="single_stretched"
       pattern="m 4.0172842,-31.611626 c 0,-0.891511 0.7235456,-1.615057 1.6150571,-1.615057 0.8915116,0 1.6150572,0.723546 1.6150572,1.615057 0,0.891512 -0.7235456,1.615057 -1.6150572,1.615057 -0.8915115,0 -1.6150571,-0.723545 -1.6150571,-1.615057 z"
       lpeversion="1"
       is_visible="true"
       id="path-effect1288"
       effect="skeletal" />
    <inkscape:path-effect
       fuse_tolerance="0"
       hide_knot="false"
       vertical_pattern="false"
       prop_units="false"
       tang_offset="0"
       normal_offset="0"
       spacing="0"
       scale_y_rel="false"
       prop_scale="0.2"
       copytype="single_stretched"
       pattern="M 0,5 C 0,2.24 2.24,0 5,0 7.76,0 10,2.24 10,5 10,7.76 7.76,10 5,10 2.24,10 0,7.76 0,5 Z"
       lpeversion="1"
       is_visible="true"
       id="path-effect1284"
       effect="skeletal" />
    <inkscape:path-effect
       fuse_tolerance="0"
       hide_knot="false"
       vertical_pattern="false"
       prop_units="false"
       tang_offset="0"
       normal_offset="0"
       spacing="0"
       scale_y_rel="false"
       prop_scale="0.2"
       copytype="single_stretched"
       pattern="m 14.586342,-32.807356 c 0.141236,-0.880252 0.970269,-1.480034 1.850523,-1.338798 0.880253,0.141236 1.480035,0.97027 1.338799,1.850522 -0.141236,0.880253 -0.97027,1.480036 -1.850524,1.3388 -0.880252,-0.141236 -1.480034,-0.970271 -1.338798,-1.850524 z"
       lpeversion="1"
       is_visible="true"
       id="path-effect1280"
       effect="skeletal" />
    <inkscape:path-effect
       fuse_tolerance="0"
       hide_knot="false"
       vertical_pattern="false"
       prop_units="false"
       tang_offset="0"
       normal_offset="0"
       spacing="0"
       scale_y_rel="false"
       prop_scale="0.16"
       copytype="single_stretched"
       pattern="m 22.070585,-31.943265 c 0.226481,-0.862264 1.1101,-1.378263 1.972364,-1.151783 0.862264,0.226481 1.378263,1.1101 1.151782,1.972363 -0.22648,0.862265 -1.110099,1.378264 -1.972363,1.151783 -0.862264,-0.22648 -1.378263,-1.1101 -1.151783,-1.972363 z"
       lpeversion="1"
       is_visible="true"
       id="path-effect1276"
       effect="skeletal" />
    <inkscape:path-effect
       fuse_tolerance="0"
       hide_knot="false"
       vertical_pattern="false"
       prop_units="false"
       tang_offset="0"
       normal_offset="0"
       spacing="0"
       scale_y_rel="false"
       prop_scale="0.16"
       copytype="single_stretched"
       pattern="m 15.26996,-32.648637 c 0.14944,-0.878898 0.984033,-1.470921 1.862931,-1.321481 0.878896,0.14944 1.47092,0.984033 1.32148,1.86293 -0.14944,0.878898 -0.984032,1.470921 -1.86293,1.32148 -0.878897,-0.149439 -1.470921,-0.984032 -1.321481,-1.862929 z"
       lpeversion="1"
       is_visible="true"
       id="path-effect1272"
       effect="skeletal" />
    <inkscape:path-effect
       fuse_tolerance="0"
       hide_knot="false"
       vertical_pattern="false"
       prop_units="false"
       tang_offset="0"
       normal_offset="0"
       spacing="0"
       scale_y_rel="false"
       prop_scale="0.21"
       copytype="single_stretched"
       pattern="M 0,5 C 0,2.24 2.24,0 5,0 7.76,0 10,2.24 10,5 10,7.76 7.76,10 5,10 2.24,10 0,7.76 0,5 Z"
       lpeversion="1"
       is_visible="true"
       id="path-effect1232"
       effect="skeletal" />
    <inkscape:path-effect
       fuse_tolerance="0"
       hide_knot="false"
       vertical_pattern="false"
       prop_units="false"
       tang_offset="0"
       normal_offset="0"
       spacing="0"
       scale_y_rel="false"
       prop_scale="0.28"
       copytype="single_stretched"
       pattern="M 0,5 C 0,2.24 2.24,0 5,0 7.76,0 10,2.24 10,5 10,7.76 7.76,10 5,10 2.24,10 0,7.76 0,5 Z"
       lpeversion="1"
       is_visible="true"
       id="path-effect1228"
       effect="skeletal" />
    <inkscape:path-effect
       fuse_tolerance="0"
       hide_knot="false"
       vertical_pattern="false"
       prop_units="false"
       tang_offset="0"
       normal_offset="0"
       spacing="0"
       scale_y_rel="false"
       prop_scale="0.21"
       copytype="single_stretched"
       pattern="M 0,5 C 0,2.24 2.24,0 5,0 7.76,0 10,2.24 10,5 10,7.76 7.76,10 5,10 2.24,10 0,7.76 0,5 Z"
       lpeversion="1"
       is_visible="true"
       id="path-effect1224"
       effect="skeletal" />
    <inkscape:path-effect
       fuse_tolerance="0"
       hide_knot="false"
       vertical_pattern="false"
       prop_units="false"
       tang_offset="0"
       normal_offset="0"
       spacing="0"
       scale_y_rel="false"
       prop_scale="1"
       copytype="single_stretched"
       pattern="M 0,5 C 0,2.24 2.24,0 5,0 7.76,0 10,2.24 10,5 10,7.76 7.76,10 5,10 2.24,10 0,7.76 0,5 Z"
       lpeversion="1"
       is_visible="true"
       id="path-effect1220"
       effect="skeletal" />
    <inkscape:path-effect
       end_linecap_type="zerowidth"
       scale_width="3.9"
       miter_limit="4"
       linejoin_type="round"
       start_linecap_type="zerowidth"
       interpolator_beta="0.2"
       interpolator_type="CentripetalCatmullRom"
       sort_points="true"
       offset_points="0.2,0.2645835 | 0.5,0.2645835 | 0.8,0.2645835"
       lpeversion="1"
       is_visible="true"
       id="path-effect1216"
       effect="powerstroke" />
    <inkscape:path-effect
       fuse_tolerance="0"
       hide_knot="false"
       vertical_pattern="false"
       prop_units="false"
       tang_offset="0"
       normal_offset="0"
       spacing="0"
       scale_y_rel="false"
       prop_scale="1"
       copytype="single_stretched"
       pattern="M 0,5 C 0,2.24 2.24,0 5,0 7.76,0 10,2.24 10,5 10,7.76 7.76,10 5,10 2.24,10 0,7.76 0,5 Z"
       lpeversion="1"
       is_visible="true"
       id="path-effect1212"
       effect="skeletal" />
    <inkscape:path-effect
       fuse_tolerance="0"
       hide_knot="false"
       vertical_pattern="false"
       prop_units="false"
       tang_offset="0"
       normal_offset="0"
       spacing="0"
       scale_y_rel="false"
       prop_scale="1"
       copytype="single_stretched"
       pattern="M 0,5 C 0,2.24 2.24,0 5,0 7.76,0 10,2.24 10,5 10,7.76 7.76,10 5,10 2.24,10 0,7.76 0,5 Z"
       lpeversion="1"
       is_visible="true"
       id="path-effect1208"
       effect="skeletal" />
    <inkscape:path-effect
       fuse_tolerance="0"
       hide_knot="false"
       vertical_pattern="false"
       prop_units="false"
       tang_offset="0"
       normal_offset="0"
       spacing="0"
       scale_y_rel="false"
       prop_scale="1"
       copytype="single_stretched"
       pattern="M 0,5 C 0,2.24 2.24,0 5,0 7.76,0 10,2.24 10,5 10,7.76 7.76,10 5,10 2.24,10 0,7.76 0,5 Z"
       lpeversion="1"
       is_visible="true"
       id="path-effect1204"
       effect="skeletal" />
    <inkscape:path-effect
       end_linecap_type="zerowidth"
       scale_width="0.8"
       miter_limit="4"
       linejoin_type="round"
       start_linecap_type="zerowidth"
       interpolator_beta="0.3372093"
       interpolator_type="Linear"
       sort_points="true"
       offset_points="0.2,1.8325 | 1,1.8325 | 1.8,1.8325"
       lpeversion="1"
       is_visible="true"
       id="path-effect1198"
       effect="powerstroke" />
    <inkscape:path-effect
       fuse_tolerance="0"
       hide_knot="false"
       vertical_pattern="false"
       prop_units="false"
       tang_offset="0"
       normal_offset="0"
       spacing="0"
       scale_y_rel="false"
       prop_scale="0.99"
       copytype="single_stretched"
       pattern="M 0,5 C 0,2.24 2.24,0 5,0 7.76,0 10,2.24 10,5 10,7.76 7.76,10 5,10 2.24,10 0,7.76 0,5 Z"
       lpeversion="1"
       is_visible="true"
       id="path-effect1196"
       effect="skeletal" />
    <inkscape:path-effect
       lpeversion="1"
       is_visible="true"
       id="path-effect1194"
       effect="spiro" />
    <inkscape:path-effect
       end_linecap_type="zerowidth"
       scale_width="1"
       miter_limit="4"
       linejoin_type="extrp_arc"
       start_linecap_type="zerowidth"
       interpolator_beta="0.2"
       interpolator_type="CubicBezierJohan"
       sort_points="true"
       offset_points="0,0.1322915"
       lpeversion="1"
       is_visible="true"
       id="path-effect1190"
       effect="powerstroke" />
    <inkscape:path-effect
       lpeversion="1"
       is_visible="true"
       id="path-effect1188"
       effect="spiro" />
    <marker
       inkscape:isstock="true"
       style="overflow:visible"
       id="Scissors"
       refX="0"
       refY="0"
       orient="auto"
       inkscape:stockid="Scissors">
      <path
         style="fill:#000000;fill-opacity:1;stroke:#000000;stroke-opacity:1"
         d="M 9.0898857,-3.6061018 C 8.1198849,-4.7769976 6.3697607,-4.7358294 5.0623558,-4.2327734 l -8.2124046,3.0779029 c -2.3882933,-1.3067135 -4.7482873,-0.9325372 -4.7482873,-1.5687873 0,-0.4973164 0.4566662,-0.3883222 0.3883068,-1.6831941 -0.065635,-1.2432767 -1.3635771,-2.1630796 -2.5903987,-2.0816435 -1.227271,-0.00735 -2.499439,0.9331613 -2.510341,2.2300611 -0.09143,1.3063864 1.007209,2.5196896 2.306764,2.6052316 1.5223406,0.2266616 4.218258,-0.6955566 5.482945,1.57086006 -0.9422847,1.73825774 -2.6140244,1.74307674 -4.1255107,1.65607034 -1.2548743,-0.072235 -2.7620933,0.2873979 -3.3606483,1.5208605 -0.578367,1.1820862 -0.0112,2.8646022 1.316749,3.226412 1.3401912,0.4918277 3.1806689,-0.129711 3.4993722,-1.6707242 0.2456585,-1.187823 -0.5953659,-1.7459574 -0.2725074,-2.1771537 0.2436135,-0.32536 1.7907806,-0.1368452 4.5471053,-1.3748244 L 5.6763468,4.2330688 C 6.8000164,4.5467672 8.1730685,4.5362646 9.1684433,3.4313614 l -9.22008423,-3.48508362 z m -18.3078016,-1.900504 c 1.294559,0.7227998 1.1888392,2.6835702 -0.1564272,3.0632889 -1.2165179,0.423661 -2.7710269,-0.7589694 -2.3831779,-2.0774648 0.227148,-1.0818519 1.653387,-1.480632 2.5396051,-0.9858241 z m 0.056264,8.0173649 c 1.3508301,0.4988648 1.1214429,2.7844356 -0.2522207,3.091609 -0.9110594,0.3163391 -2.2135494,-0.1387976 -2.3056964,-1.2121394 -0.177609,-1.305055 1.356085,-2.4841482 2.5579171,-1.8794696 z"
         id="schere" />
    </marker>
    <marker
       inkscape:isstock="true"
       style="overflow:visible"
       id="Arrow1Lstart"
       refX="0"
       refY="0"
       orient="auto"
       inkscape:stockid="Arrow1Lstart">
      <path
         transform="matrix(0.8,0,0,0.8,10,0)"
         style="fill:#000000;fill-opacity:1;fill-rule:evenodd;stroke:#000000;stroke-width:1pt;stroke-opacity:1"
         d="M 0,0 5,-5 -12.5,0 5,5 Z"
         id="path890" />
    </marker>
    <rect
       id="rect880"
       height="18.473585"
       width="23.103794"
       y="20.268972"
       x="44.412201" />
    <rect
       id="rect871"
       height="12.000744"
       width="21.922619"
       y="14.410342"
       x="40.537949" />
  </defs>
  <sodipodi:namedview
     inkscape:window-maximized="1"
     inkscape:window-y="-1"
     inkscape:window-x="1912"
     inkscape:window-height="1017"
     inkscape:window-width="1920"
     showgrid="false"
     inkscape:document-rotation="0"
     inkscape:current-layer="layer1"
     inkscape:document-units="mm"
     inkscape:cy="145.88796"
     inkscape:cx="294.78048"
     inkscape:zoom="1.979899"
     inkscape:pageshadow="2"
     inkscape:pageopacity="0.0"
     borderopacity="1.0"
     bordercolor="#666666"
     pagecolor="#ffffff"
     id="base" />
  <metadata
     id="metadata5">
    <rdf:RDF>
      <cc:Work
         rdf:about="">
        <dc:format>image/svg+xml</dc:format>
        <dc:type
           rdf:resource="http://purl.org/dc/dcmitype/StillImage" />
        <dc:title></dc:title>
      </cc:Work>
    </rdf:RDF>
  </metadata>
  <g
     id="layer1"
     inkscape:groupmode="layer"
     inkscape:label="Layer 1">
    <path
       style="fill:#f7fff6;fill-opacity:1;stroke:none;stroke-width:0.264583px;stroke-linecap:butt;stroke-linejoin:miter;stroke-opacity:1"
       d="M 0.18307581,37.027252 28.064732,18.001116 c 0,0 -16.448014,16.065268 -4.940339,25.89201 0,0 -2.569625,-3.260959 -12.091057,0.18821 0,0 5.972575,-6.629155 -4.6092495,-2.91291 0,0 10.8092525,-6.234457 -6.24101069,-4.141174 z"
       id="path959" />
    <text
       id="text863"
       y="126.15121"
       x="36.348656"
       style="font-style:normal;font-variant:normal;font-weight:normal;font-stretch:normal;font-size:10.5833px;line-height:1.25;font-family:Hardcore;-inkscape-font-specification:Hardcore;white-space:pre;inline-size:0;fill:#000000;fill-opacity:1;stroke:none;stroke-width:0.264583"
       xml:space="preserve"><tspan
         style="font-style:normal;font-variant:normal;font-weight:normal;font-stretch:normal;font-family:Hardcore;-inkscape-font-specification:Hardcore;stroke-width:0.264583"
         y="126.15121"
         x="36.348656"
         id="tspan861" /></text>
    <text
       style="font-size:10.5833px;line-height:1.25;font-family:Chronic;-inkscape-font-specification:Chronic;white-space:pre;shape-inside:url(#rect871);"
       id="text869"
       xml:space="preserve" />
    <text
       style="font-size:10.5833px;line-height:1.25;font-family:Chronic;-inkscape-font-specification:Chronic;white-space:pre;shape-inside:url(#rect880);"
       id="text878"
       xml:space="preserve" />
    <path
       id="path1218"
       d="M 40.892237,188.69228 2.6726951,217.82466"
       style="fill:#000000;stroke:none;stroke-width:0.264583px;stroke-linecap:butt;stroke-linejoin:miter;stroke-opacity:1" />
    <path
       sodipodi:nodetypes="cccccccc"
       id="path1268"
       d="m 28.487429,94.050549 c 0,0 -12.826853,13.849551 -27.1017854,18.688431 4.9571056,-0.31285 11.1267674,-1.08805 9.0886734,1.26639 l -2.9400147,2.57564 c 2.5049767,-0.29317 6.9569247,-2.09743 5.8452057,0.41642 l -1.391982,2.39789 c 3.710022,-0.48263 7.426925,-3.43195 11.681764,-0.18184 0.626854,-2.20274 -11.922391,-6.87475 4.818139,-25.162931 z"
       style="fill:#f7fff6;fill-opacity:1;stroke:#f7fff6;stroke-width:0.312;stroke-linecap:butt;stroke-linejoin:miter;stroke-miterlimit:4;stroke-dasharray:none;stroke-opacity:1" />
    <path
       d="m 63.693808,20.158724 c -1.391062,-1.638275 -5.704905,-3.71947 -5.704905,-3.71947 0.693366,-1.810889 -5.396535,-6.026812 -5.396535,-6.026812 -6.514625,-5.826031 -8.45405,-10.28290459 -8.45405,-10.28290459 0,0 -0.303802,4.05692709 1.222874,8.38675309 0,0 -2.82208,2.5228775 -5.148758,2.6794675 0,0 1.869481,0.481022 2.878746,1.787319 0,0 0.491265,0.987688 -0.807489,2.192249 0,0 3.344379,0.133249 4.112329,3.283082 -0.05099,4.302473 -4.645612,2.30457 -4.645612,2.30457 0.913364,2.035098 5.495713,2.106325 5.495713,2.106325 3.665767,0.178138 5.346595,2.073789 5.346595,2.073789 2.10775,2.575761 -0.758617,2.715046 -0.758617,2.715046 3.072723,1.498568 5.621286,0.665518 5.621286,0.665518 l 2.17899,-2.00647 c -0.710615,0.251627 -1.862549,0.31993 -1.862549,0.31993 0.326249,-0.322673 0.489602,-0.78698 0.489602,-0.78698 -1.312049,0.48952 -1.482438,0.152595 -1.482438,0.152595 l -0.277296,-1.253336 c -0.40169,0.468695 -1.024482,0.401977 -1.024482,0.401977 l -0.184469,-1.939153 c -0.784756,0.67906 -1.125653,0.0053 -1.125653,0.0053 0.300605,-2.964473 -1.900915,-3.642667 -1.900915,-3.642667 1.095839,0.237313 2.049339,0.372193 2.712879,0.77065 0.364186,0.218704 0.180004,1.565048 0.310395,1.416082 0.07354,-0.084 0.785738,-0.935778 0.958407,-0.835734 3.011674,1.744982 0.895116,3.631804 0.895116,3.631804 1.599662,-0.57693 2.24919,-1.179185 2.24919,-1.179185 0.05144,1.08566 -0.997934,1.832118 -0.997934,1.832118 1.680874,-0.203219 2.582444,-0.70071 2.582444,-0.70071 4.766495,0.51727 3.039344,-3.134602 3.039344,-3.134602 0.227636,-0.333852 0.0673,-0.757749 -0.322204,-1.216467 z m -7.392772,-4.317536 c 0,0 -1.603713,-0.267185 -2.482967,-0.676892 -0.514851,-0.36176 -1.373198,-1.960138 -1.373198,-1.960138 1.037244,0.918813 3.856165,2.63703 3.856165,2.63703 z"
       style="fill:#f7fff6;fill-opacity:1;stroke:#f7fff6;stroke-width:0.322931;stroke-linecap:butt;stroke-linejoin:miter;stroke-miterlimit:4;stroke-dasharray:none;stroke-opacity:1"
       id="path849" />
    <path
       sodipodi:nodetypes="ccscscccccssscccccccccccscccccccccc"
       id="path875"
       style="font-size:10.5833px;line-height:1.25;font-family:Chronic;-inkscape-font-specification:Chronic;fill:#f7fff6;fill-opacity:1;stroke-width:0.322931;stroke-miterlimit:4;stroke-dasharray:none"
       d="m 42.675361,5.1204435 c 7.355784,2.6194959 0.415819,7.8626325 0.415819,7.8626325 h -0.189013 c -1.008035,0 -3.843121,3.049291 -8.505259,9.147871 -2.923283,3.452501 -4.384925,6.364908 -4.384925,7.272139 0,1.915253 6.130669,3.483809 12.531657,6.659095 3.830512,1.461648 9.420379,2.848152 24.339222,7.333888 3.049292,1.638049 5.428571,4.565641 5.428571,5.120058 -1.764052,2.620879 -3.943917,4.586538 -6.539589,5.896977 -6.048185,3.679308 -13.961219,6.224577 -23.739107,7.635819 -3.200492,0.428412 -5.607164,0.642623 -7.220016,0.642623 h -3.061884 c -9.147874,0 -13.721811,-1.89005 -13.721811,-5.670159 0,-1.663253 1.675848,-3.843123 5.027547,-6.539601 5.115755,-3.276098 8.982198,-3.622929 11.426666,-3.975731 4.390592,0.459276 6.428854,0.234218 7.549498,3.522116 0.01298,0.672556 -0.09997,1.596596 -0.680441,1.776651 -0.841618,0.261719 -0.427722,-1.285464 -1.096224,-1.323036 -0.02897,-0.827771 -2.71142,-1.541149 -7.244098,-0.272836 -7.212638,1.386205 -11.564756,7.925432 -0.807554,7.039234 v 0 0 c 9.097467,-1.008022 17.464116,-2.406699 22.453864,-5.027577 1.486844,0 3.666709,-1.386039 6.539599,-4.158126 v -0.189008 c 0,-0.756022 -2.608278,-1.776651 -7.824836,-3.061898 l -0.453602,0.226818 c -2.797265,-1.033215 -6.577368,-1.978235 -11.340307,-2.835059 -6.07338,-2.116867 -9.929094,-3.578505 -11.567144,-4.384933 -5.796171,-2.343676 -8.694256,-5.178755 -8.694256,-8.50525 0.377989,-0.856824 1.675827,-2.595675 3.893512,-5.216554 0,-0.277212 1.461644,-2.608281 4.384931,-6.99321 C 31.309833,13.600483 34.863139,9.75737 40.2561,5.5740463 41.289326,5.2716344 42.09575,5.12043 42.675367,5.1204331 Z" />
    <path
       sodipodi:nodetypes="cccccccccccccccccccc"
       d="m 43.656832,23.963754 c 0,0 -5.089279,-0.175072 -7.991637,-1.908393 m 4.018947,4.998212 c 2.187328,3.348282 -0.08786,6.650919 -0.08786,6.650919 4.211314,-3.81764 1.630107,-6.781002 1.630107,-6.781002 0,0 -1.007618,-0.628454 -1.542245,0.130083 z m 1.542245,-0.130083 c 3.113268,3.91041 0.220284,6.304802 0.220284,6.304802 4.644646,-1.947846 1.506422,-7.396435 1.506422,-7.396435 3.872025,1.70751 3.894412,4.951295 3.894412,4.951295 0,0 2.122293,-2.613623 -3.190673,-6.819394 0,0 -1.437117,0.134143 -1.458226,1.228343 0,0 -1.488078,0.363805 -0.972219,1.731389 z m -5.561192,-4.868129 c 1.91055,1.89507 0.09191,3.625505 0.09191,3.625505 2.640489,-0.214108 3.927032,1.372707 3.927032,1.372707 0,0 2.346901,0.105605 2.514467,-1.861462 m -4.207657,-1.941848 c 1.887506,0.746593 4.207657,1.941848 4.207657,1.941848 0,0 1.766869,-1.072381 1.458226,-1.228357"
       style="font-size:10.5833px;line-height:1.25;font-family:Chronic;-inkscape-font-specification:Chronic;fill:#f7fff6;fill-opacity:1;stroke:#f7fff6;stroke-width:0.322931;stroke-linecap:butt;stroke-linejoin:miter;stroke-miterlimit:4;stroke-dasharray:none;stroke-opacity:1"
       id="path1258" />
    <path
       id="path1261"
       d="m 41.834162,15.313643 c 0,0 3.778506,-2.506856 -1.621728,-4.117885"
       style="fill:none;stroke:#087e8b;stroke-width:0.322931;stroke-linecap:butt;stroke-linejoin:miter;stroke-miterlimit:4;stroke-dasharray:none;stroke-opacity:1"
       sodipodi:nodetypes="cc" />
    <path
       sodipodi:nodetypes="ccc"
       id="path1263"
       d="m 40.212434,11.195758 c 0,0 2.143763,-0.01409 5.148758,-2.6794675 C 43.921836,4.069938 44.219685,2.4031086 44.138318,0.12953741"
       style="fill:none;stroke:#087e8b;stroke-width:0.322931;stroke-linecap:butt;stroke-linejoin:miter;stroke-miterlimit:4;stroke-dasharray:none;stroke-opacity:1" />
    <path
       inkscape:original-d="M 6.3805504,41.263397 16.443374,32.553541"
       inkscape:path-effect="#path-effect1272"
       id="path1270"
       d="m 6.4240865,41.168426 c 0.3734568,-0.509228 2.9111219,-2.830977 5.6644315,-5.182475 2.753303,-2.351493 4.684779,-3.846669 4.311322,-3.337441 -0.373457,0.509229 -2.911119,2.830975 -5.664429,5.182473 -2.7533064,2.351496 -4.6847814,3.846672 -4.3113245,3.337443 z"
       style="fill:#087e8b;fill-opacity:1;stroke:none;stroke-width:0.322931;stroke-linecap:butt;stroke-linejoin:miter;stroke-miterlimit:4;stroke-dasharray:none;stroke-opacity:1" />
    <path
       sodipodi:nodetypes="ccc"
       inkscape:original-d="m 10.982636,44.254322 3.527156,-4.564937 2.693375,-3.485838"
       inkscape:path-effect="#path-effect1276"
       id="path1274"
       d="m 11.033336,44.081336 c 0.302419,-0.600146 1.725226,-2.572776 3.273801,-4.548534 0,0 0,-10e-7 0,-10e-7 0.125341,-0.159916 0.251505,-0.319853 0.377966,-0.479085 1.68888,-2.126525 2.79426,-3.325905 2.467363,-2.677183 -0.246912,0.489996 -1.240692,1.894912 -2.440001,3.46945 0,0 0,0 0,0 -0.388488,0.510035 -0.798543,1.037869 -1.211763,1.558168 -1.68888,2.126525 -2.79426,3.325904 -2.467366,2.677185 z"
       style="fill:#087e8b;fill-opacity:1;stroke:none;stroke-width:0.322931;stroke-linecap:butt;stroke-linejoin:miter;stroke-miterlimit:4;stroke-dasharray:none;stroke-opacity:1" />
    <path
       inkscape:original-d="m 0.03245515,37.192038 c 0,0 10.68565485,-2.174819 28.09898385,-19.273944"
       inkscape:path-effect="#path-effect1280"
       id="path1278"
       d="M 0.18307581,37.027252 C 1.3128291,36.040714 8.4564292,30.996512 16.128637,25.767854 c 7.6722,-5.228652 12.982012,-8.671528 11.852259,-7.684991 -1.129754,0.986537 -8.273362,6.030746 -15.94557,11.259404 -7.6721911,5.228646 -12.98200332,8.671522 -11.85225019,7.684985 z"
       style="fill:#087e8b;fill-opacity:1;stroke:none;stroke-width:0.322931;stroke-linecap:butt;stroke-linejoin:miter;stroke-miterlimit:4;stroke-dasharray:none;stroke-opacity:1" />
    <path
       inkscape:original-d="m 41.834162,15.313643 4.571701,-0.02225"
       inkscape:path-effect="#path-effect1288"
       id="path1286"
       d="m 41.834162,15.313643 c -6.51e-4,-0.133725 1.022882,-0.24724 2.284671,-0.253381 1.26179,-0.0061 2.286379,0.09741 2.28703,0.231131 6.51e-4,0.133725 -1.022882,0.24724 -2.284672,0.253381 -1.261789,0.0061 -2.286378,-0.09741 -2.287029,-0.231131 z"
       style="fill:#087e8b;fill-opacity:1;stroke:none;stroke-width:0.322931;stroke-linecap:butt;stroke-linejoin:miter;stroke-miterlimit:4;stroke-dasharray:none;stroke-opacity:1" />
    <path
       inkscape:path-effect="#path-effect1292"
       inkscape:original-d="m 44.008646,-1.3510269e-4 c 0,0 -0.261177,6.75751820269 2.911492,11.50573210269"
       id="path1290"
       d="M 44.008641,-1.1697966e-5 C 44.113577,-0.00707376 44.314879,1.651023 44.503848,3.9649407 c 0,0 0,4e-7 0,4e-7 0.09971,0.6168691 0.222712,1.279126 0.379164,1.9625055 0.73515,3.2111218 2.148316,5.5038564 2.037126,5.5781514 -0.111189,0.07429 -1.760105,-2.1948988 -2.51247,-5.483671 -0.1602,-0.7002722 -0.275141,-1.3780415 -0.357313,-2.008732 0,0 0,-5e-7 0,-5e-7 C 43.92658,1.6794733 43.90367,0.00705275 44.008641,-1.1697966e-5 Z"
       style="fill:#087e8b;fill-opacity:1;stroke:none;stroke-width:0.322931;stroke-linecap:butt;stroke-linejoin:miter;stroke-miterlimit:4;stroke-dasharray:none;stroke-opacity:1"
       sodipodi:nodetypes="cc" />
    <path
       sodipodi:nodetypes="cc"
       id="path1294"
       d="M 0.05999862,37.191779 C 0.23558795,37.1215 11.289545,35.951588 9.7777567,37.935929"
       style="fill:none;stroke:#087e8b;stroke-width:0.322931;stroke-linecap:butt;stroke-linejoin:miter;stroke-miterlimit:4;stroke-dasharray:none;stroke-opacity:1" />
    <path
       sodipodi:nodetypes="csc"
       id="path1296"
       d="m 6.4240866,41.168422 c 0.4145482,0.228246 5.5513854,-1.644788 5.9799184,-0.792476 0.363685,0.723325 0.273964,1.559034 -1.370668,3.70539"
       style="fill:none;stroke:#087e8b;stroke-width:0.322931;stroke-linecap:butt;stroke-linejoin:miter;stroke-miterlimit:4;stroke-dasharray:none;stroke-opacity:1" />
    <path
       inkscape:original-d="m 40.212434,11.195758 6.621373,1.691136"
       inkscape:path-effect="#path-effect1353"
       id="path1351"
       d="m 40.212434,11.195758 c 0.04192,-0.164119 1.559124,0.0815 3.386624,0.548252 1.8275,0.466753 3.276668,0.978766 3.234752,1.142885 -0.04192,0.164119 -1.559125,-0.0815 -3.386624,-0.548252 -1.8275,-0.466754 -3.276669,-0.978766 -3.234752,-1.142885 z"
       style="fill:#087e8d;fill-opacity:1;stroke:none;stroke-width:0.322931;stroke-linecap:butt;stroke-linejoin:miter;stroke-miterlimit:4;stroke-dasharray:none;stroke-opacity:1" />
    <path
       sodipodi:nodetypes="cc"
       id="path1355"
       d="m 11.033337,44.081336 c 0.841933,0.194287 8.347412,-3.586196 12.091056,-0.188211"
       style="fill:none;stroke:#087e8b;stroke-width:0.322931;stroke-linecap:butt;stroke-linejoin:miter;stroke-miterlimit:4;stroke-dasharray:none;stroke-opacity:1" />
    <text
       xml:space="preserve"
       id="text926"
       style="font-size:10.5833px;line-height:1.25;font-family:Chronic;-inkscape-font-specification:Chronic;white-space:pre;shape-inside:url(#rect928);" />
  </g>
</svg>
